<svg width="62" height="62" viewBox="0 0 62 62" fill="none" xmlns="http://www.w3.org/2000/svg"><path d="M25.113 33.657c-.662 0-1.199.537-1.199 1.199v.615l.002.03c.125 2.494 2.006 4.992 5.208 5.238l.046.004h.632a1.198 1.198 0 000-2.397h-.537c-1.84-.161-2.872-1.544-2.954-2.937v-.553c0-.662-.537-1.199-1.198-1.199z" fill="#fff"/><path fill-rule="evenodd" clip-rule="evenodd" d="M28.399 14.294c-6.194.273-10.982 5.357-11.293 11.549-.156 3.106-.278 5.882-.278 8.464 0 2.407.106 4.818.247 7.588.313 6.162 5.093 11.2 11.256 11.476.934.042 1.838.067 2.669.067.857 0 1.792-.026 2.756-.07 6.123-.282 10.886-5.26 11.187-11.382.132-2.666.228-5.047.228-7.68 0-2.94-.107-5.651-.25-8.58-.298-6.141-5.064-11.148-11.206-11.427-.95-.043-1.87-.069-2.715-.069-.81 0-1.692.024-2.601.064zm-7.849 12.26c.235-4.72 3.819-8.575 8.435-8.788A44.549 44.549 0 0131 17.714c.658 0 1.379.022 2.12.057 4.568.218 8.128 4 8.35 8.672.02.445.04.824.058 1.168.06 1.166.1 1.93.1 3.514 0 1.563-.043 2.452-.108 3.789-.01.215-.022.442-.033.684-.221 4.653-3.778 8.409-8.328 8.63-.755.036-1.49.058-2.159.058-.645 0-1.35-.02-2.077-.055-4.588-.216-8.164-4.028-8.397-8.718-.015-.307-.03-.587-.043-.85v-.002c-.067-1.29-.112-2.152-.112-3.536 0-1.329.042-2.059.104-3.167.023-.403.048-.855.075-1.405z" fill="#fff"/><path fill-rule="evenodd" clip-rule="evenodd" d="M15.796 0h30.408c6.673 0 8.398.692 10.065 1.584a9.908 9.908 0 014.147 4.147C61.308 7.398 62 9.123 62 15.796v1.052a.904.904 0 01-.87.897c-.149.006-.3.013-.45.021-4.04.213-7.175 4.068-7.38 8.787-.024.546-.046.997-.066 1.398v.007a54.827 54.827 0 00-.091 3.167c0 1.384.039 2.245.097 3.537.012.263.025.544.038.85.204 4.691 3.333 8.503 7.347 8.719.17.01.338.017.505.024.482.02.87.414.87.898v1.05c0 6.674-.693 8.4-1.584 10.066a9.909 9.909 0 01-4.147 4.147C54.602 61.308 52.877 62 46.204 62H15.796c-6.673 0-8.398-.693-10.065-1.584a9.908 9.908 0 01-4.147-4.147C.692 54.602 0 52.877 0 46.204v-1.051c0-.484.387-.877.87-.898.19-.008.383-.017.577-.028 3.98-.22 7.093-3.976 7.286-8.629.01-.239.02-.462.029-.674v-.01c.057-1.338.095-2.226.095-3.789 0-1.584-.035-2.348-.088-3.514a267.91 267.91 0 01-.051-1.168c-.193-4.671-3.308-8.454-7.305-8.672a44.47 44.47 0 00-.543-.026.904.904 0 01-.87-.898v-1.05c0-6.674.692-8.4 1.584-10.066A9.908 9.908 0 015.73 1.584C7.398.692 9.123 0 15.796 0zm12.468 11.227c-7.885.347-13.84 6.8-14.224 14.462-.156 3.105-.282 5.951-.282 8.617 0 2.493.11 4.97.25 7.745.389 7.643 6.346 14.036 14.186 14.388.965.043 1.917.07 2.806.07.917 0 1.9-.029 2.897-.075 7.783-.357 13.737-6.675 14.113-14.297.132-2.68.232-5.122.232-7.83 0-3.016-.11-5.786-.254-8.73-.37-7.635-6.322-13.99-14.133-14.345A63.75 63.75 0 0031 11.16c-.867 0-1.795.025-2.736.067z" fill="#fff"/></svg>